<?xml version="1.0" encoding="UTF-8" standalone="no"?>
<!-- Created with Inkscape (http://www.inkscape.org/) -->
<svg
   xmlns:svg="http://www.w3.org/2000/svg"
   xmlns="http://www.w3.org/2000/svg"
   version="1.0"
   width="743.74011"
   height="351.85037"
   id="svg2298">
  <defs
     id="defs2300"><clipPath
   id="clp9">
<path
   d="M 403.68,96.001 L 531,96.001 L 531,49.921 L 403.68,49.921 L 403.68,96.001 z "
   id="path16343" />

</clipPath>
<clipPath
   id="clp10">
<path
   d="M 474.1,85.638 L 530.98,85.638 L 530.98,60.258 L 474.1,60.258 L 474.1,85.638"
   id="path16391" />

</clipPath>
<clipPath
   id="clp2">
<path
   d="M 530.51,772.95 L 586.26,772.95 L 586.26,725.99 L 530.51,725.99 L 530.51,772.95"
   id="path14166" />

</clipPath>



</defs>
  <g
     transform="translate(-331.86912,100.75879)"
     id="layer1">
    <g
       transform="translate(17.788566,17.678271)"
       id="g18325">
      <path
         d="M 463.63775,116.03674 C 456.78777,119.31229 440.72146,123.33508 420.42063,123.33508 C 362.00902,123.33508 331.86912,86.706398 331.86912,38.308193 C 331.86912,-19.381055 373.09351,-51.214765 424.15698,-51.214765 C 444.08418,-51.214765 459.02957,-47.204415 465.87957,-43.692245 L 457.78413,-13.614615 C 450.31144,-16.865255 439.47602,-19.879245 425.65151,-19.879245 C 395.63617,-19.879245 372.09716,-1.5711151 372.09716,36.303027 C 372.09716,70.154362 392.14891,91.464014 426.02514,91.464014 C 437.73238,91.464014 450.31144,89.197289 458.03324,85.946654 L 463.63775,116.03674"
         style="font-size:10.92000008px;letter-spacing:0.07098;word-spacing:0;fill:#231f20;fill-rule:nonzero;stroke:none;font-family:fnt5, &quot;Arial&quot;, Arial"
         id="path16349" />
      <path
         d="M 528.77481,123.33508 C 492.90583,123.33508 465.38139,99.746261 465.38139,60.116029 C 465.38139,20.498255 491.41131,-4.8217551 531.01663,-4.8217551 C 568.38013,-4.8217551 593.5382,21.008895 593.5382,58.110863 C 593.5382,102.76025 561.65469,123.33508 529.02388,123.33508 L 528.77481,123.33508 z M 529.52208,95.97253 C 544.59201,95.97253 553.80834,81.189038 553.80834,59.119664 C 553.80834,41.060645 546.83383,22.515875 529.52208,22.515875 C 511.46306,22.515875 504.48852,41.060645 504.48852,59.368766 C 504.48852,80.192694 513.20668,95.97253 529.27299,95.97253 L 529.52208,95.97253"
         style="font-size:10.92000008px;letter-spacing:0.07098;word-spacing:0;fill:#231f20;fill-rule:nonzero;stroke:none;font-family:fnt5, &quot;Arial&quot;, Arial"
         id="path16351" />
      <path
         d="M 607.23816,38.308193 C 607.23816,20.249175 606.98909,8.4672149 606.24181,-2.0693051 L 638.8726,-2.0693051 L 640.36715,20.747335 L 641.36351,20.747335 C 647.59075,2.6883149 662.41161,-4.8217551 674.49246,-4.8217551 C 677.97972,-4.8217551 679.72338,-4.5726551 682.46336,-4.0744651 L 682.46336,31.782032 C 679.22519,31.296307 676.2361,30.785668 672.00159,30.785668 C 657.92799,30.785668 648.33803,38.046656 645.84713,50.102611 C 645.34895,52.60596 645.09984,55.358412 645.09984,58.621481 L 645.09984,120.57019 L 606.98909,120.57019 L 607.23816,38.308193"
         style="font-size:10.92000008px;letter-spacing:0.07098;word-spacing:0;fill:#231f20;fill-rule:nonzero;stroke:none;font-family:fnt5, &quot;Arial&quot;, Arial"
         id="path16353" />
      <path
         d="M 745.60769,-35.410015 L 745.60769,-2.0693051 L 773.0076,-2.0693051 L 773.0076,26.015595 L 745.60769,26.015595 L 745.60769,70.665002 C 745.60769,85.460929 749.34404,92.223736 760.67764,92.223736 C 765.90853,92.223736 768.39943,91.974655 771.88668,91.227369 L 772.13577,120.05955 C 767.40308,121.81563 758.18673,123.33508 747.6004,123.33508 C 735.27046,123.33508 725.05776,119.06318 718.83052,112.78612 C 711.73145,105.51268 708.24417,93.718284 708.24417,76.43142 L 708.24417,26.015595 L 691.92879,26.015595 L 691.92879,-2.0693051 L 708.24417,-2.0693051 L 708.24417,-25.147495 L 745.60769,-35.410015"
         style="font-size:10.92000008px;letter-spacing:0.07098;word-spacing:0;fill:#1a86a2;fill-rule:nonzero;stroke:none;font-family:fnt5, &quot;Arial&quot;, Arial"
         id="path16355" />
      <path
         d="M 807.6311,71.150727 C 808.87656,87.20458 824.44469,94.727084 842.25462,94.727084 C 855.33186,94.727084 865.79365,92.958541 876.13086,89.458826 L 881.11267,115.31439 C 868.65817,120.57019 853.33915,123.07354 836.77465,123.07354 C 795.1766,123.07354 771.26397,98.998975 771.26397,60.377567 C 771.26397,29.278684 790.81753,-5.0708351 833.28739,-5.0708351 C 872.89272,-5.0708351 887.96266,25.766515 887.96266,56.105675 C 887.96266,62.631835 887.21537,68.398276 886.59265,71.412264 L 807.6311,71.150727 z M 852.59185,45.070977 C 852.59185,36.041468 848.48186,20.249175 831.29467,20.249175 C 814.97928,20.249175 808.37839,35.032666 807.38203,45.070977 L 852.59185,45.070977"
         style="font-size:10.92000008px;letter-spacing:0.07098;word-spacing:0;fill:#1a86a2;fill-rule:nonzero;stroke:none;font-family:fnt5, &quot;Arial&quot;, Arial"
         id="path16357" />
      <path
         d="M 926.82069,-2.0693051 L 938.77705,18.493085 C 942.38885,24.757695 945.62695,30.785668 948.86515,36.801188 L 949.36335,36.801188 C 952.60155,30.025946 955.59055,23.997965 958.82875,17.745805 L 969.66415,-2.0693051 L 1011.0131,-2.0693051 L 970.66055,56.354777 L 1011.5113,120.55773 L 968.41875,120.55773 L 956.08875,98.500793 C 952.60155,92.472816 949.36335,86.208214 946.62335,79.931134 L 945.87605,79.931134 C 942.88705,86.457294 939.52425,92.472816 936.53525,98.500793 L 925.07706,120.55773 L 883.1054,120.55773 L 924.82798,58.110863 L 884.10174,-2.0693051 L 926.82069,-2.0693051"
         style="font-size:10.92000008px;letter-spacing:0.07098;word-spacing:0;fill:#1a86a2;fill-rule:nonzero;stroke:none;font-family:fnt5, &quot;Arial&quot;, Arial"
         id="path16359" />
      <path
         d="M 846.6137,-28.423025 L 878.87087,-28.423025 L 878.87087,-60.630365 L 846.6137,-60.630365 L 846.6137,-28.423025 z "
         style="font-size:10.92000008px;letter-spacing:0.07098;word-spacing:0;fill:#231f20;fill-rule:nonzero;stroke:none;font-family:fnt5, &quot;Arial&quot;, Arial"
         id="path16361" />
      <path
         d="M 756.19402,-28.423025 L 788.45118,-28.423025 L 788.45118,-60.630365 L 756.19402,-60.630365 L 756.19402,-28.423025 z "
         style="font-size:10.92000008px;letter-spacing:0.07098;word-spacing:0;fill:#1a86a2;fill-rule:nonzero;stroke:none;font-family:fnt5, &quot;Arial&quot;, Arial"
         id="path16363" />
      <path
         d="M 665.77433,-28.423025 L 698.03147,-28.423025 L 698.03147,-60.630365 L 665.77433,-60.630365 L 665.77433,-28.423025 z "
         style="font-size:10.92000008px;letter-spacing:0.07098;word-spacing:0;fill:#231f20;fill-rule:nonzero;stroke:none;font-family:fnt5, &quot;Arial&quot;, Arial"
         id="path16365" />
      <path
         d="M 575.35464,-28.423025 L 607.6118,-28.423025 L 607.6118,-60.630365 L 575.35464,-60.630365 L 575.35464,-28.423025 z "
         style="font-size:10.92000008px;letter-spacing:0.07098;word-spacing:0;fill:#1a86a2;fill-rule:nonzero;stroke:none;font-family:fnt5, &quot;Arial&quot;, Arial"
         id="path16367" />
      <path
         d="M 938.02975,-68.551435 L 970.28695,-68.551435 L 970.28695,-100.75879 L 938.02975,-100.75879 L 938.02975,-68.551435 z "
         style="font-size:10.92000008px;letter-spacing:0.07098;word-spacing:0;fill:#231f20;fill-rule:nonzero;stroke:none;font-family:fnt5, &quot;Arial&quot;, Arial"
         id="path16369" />
      <path
         d="M 977.38595,-29.232575 L 1009.6431,-29.232575 L 1009.6431,-61.439915 L 977.38595,-61.439915 L 977.38595,-29.232575 z "
         style="font-size:10.92000008px;letter-spacing:0.07098;word-spacing:0;fill:#231f20;fill-rule:nonzero;stroke:none;font-family:fnt5, &quot;Arial&quot;, Arial"
         id="path16371" />
      <path
         d="M 977.38595,-68.551435 L 1009.6431,-68.551435 L 1009.6431,-100.75879 L 977.38595,-100.75879 L 977.38595,-68.551435 z "
         style="font-size:10.92000008px;letter-spacing:0.07098;word-spacing:0;fill:#1a86a2;fill-rule:nonzero;stroke:none;font-family:fnt5, &quot;Arial&quot;, Arial"
         id="path16373" />
      <path
         d="M 938.02975,-29.232575 L 970.28695,-29.232575 L 970.28695,-61.439915 L 938.02975,-61.439915 L 938.02975,-29.232575 z "
         style="font-size:10.92000008px;letter-spacing:0.07098;word-spacing:0;fill:#1a86a2;fill-rule:nonzero;stroke:none;font-family:fnt5, &quot;Arial&quot;, Arial"
         id="path16375" />
      <path
         d="M 333.73729,202.91936 L 339.21726,202.91936 L 339.21726,164.92067 L 333.73729,164.92067 L 333.73729,202.91936 z "
         style="font-size:10.92000008px;letter-spacing:0.07098;word-spacing:0;fill:#231f20;fill-rule:nonzero;stroke:none;font-family:fnt5, &quot;Arial&quot;, Arial"
         id="path16377" />
      <path
         d="M 351.79632,181.19871 L 351.92087,181.19871 C 353.78905,178.79497 356.65357,177.40008 359.39357,177.40008 C 364.12626,177.40008 367.98718,180.63824 367.98718,187.48822 L 367.98718,202.91936 L 363.00538,202.91936 L 363.00538,187.43841 C 363.00538,183.75186 361.13719,181.36061 358.02356,181.36061 C 355.90631,181.36061 354.16267,182.36943 351.79632,184.98487 L 351.79632,202.91936 L 346.93907,202.91936 L 346.93907,177.9107 L 351.79632,177.9107 L 351.79632,181.19871"
         style="font-size:10.92000008px;letter-spacing:0.07098;word-spacing:0;fill:#231f20;fill-rule:nonzero;stroke:none;font-family:fnt5, &quot;Arial&quot;, Arial"
         id="path16379" />
      <path
         d="M 380.69076,177.9107 L 388.53712,177.9107 L 388.53712,182.36943 L 380.69076,182.36943 L 380.69076,195.17265 C 380.69076,198.12437 382.80804,198.97127 384.17801,198.97127 C 385.92167,198.97127 387.78983,198.34854 389.78256,197.12801 L 389.78256,201.74864 C 388.16345,202.69517 385.42349,203.41752 383.80439,203.41752 C 378.44896,203.41752 375.70895,200.07973 375.70895,195.57119 L 375.70895,182.36943 L 371.34989,182.36943 L 371.34989,181.80896 L 380.69076,172.72964 L 380.69076,177.9107"
         style="font-size:10.92000008px;letter-spacing:0.07098;word-spacing:0;fill:#231f20;fill-rule:nonzero;stroke:none;font-family:fnt5, &quot;Arial&quot;, Arial"
         id="path16381" />
      <path
         d="M 414.31793,200.46582 C 411.32884,202.47099 408.58885,203.41752 404.35432,203.41752 C 396.508,203.41752 392.14891,197.01591 392.14891,190.10366 C 392.14891,182.53133 397.00618,177.40008 403.85614,177.40008 C 410.45703,177.40008 414.69156,181.92105 414.69156,191.16229 L 397.1307,191.16229 C 397.87799,196.11919 400.74251,198.68482 405.59976,198.68482 C 408.58885,198.68482 411.32884,197.57636 414.31793,195.68329 L 414.31793,200.46582 z M 409.83431,187.87431 C 409.70975,184.08814 407.46795,181.69689 403.98069,181.69689 C 400.24433,181.69689 397.87799,183.92624 397.25525,187.87431 L 409.83431,187.87431"
         style="font-size:10.92000008px;letter-spacing:0.07098;word-spacing:0;fill:#231f20;fill-rule:nonzero;stroke:none;font-family:fnt5, &quot;Arial&quot;, Arial"
         id="path16383" />
      <path
         d="M 420.17154,202.91936 L 425.15333,202.91936 L 425.15333,164.92067 L 420.17154,164.92067 L 420.17154,202.91936 z "
         style="font-size:10.92000008px;letter-spacing:0.07098;word-spacing:0;fill:#231f20;fill-rule:nonzero;stroke:none;font-family:fnt5, &quot;Arial&quot;, Arial"
         id="path16385" />
      <path
         d="M 432.37695,202.91936 L 437.35876,202.91936 L 437.35876,164.92067 L 432.37695,164.92067 L 432.37695,202.91936 z "
         style="font-size:10.92000008px;letter-spacing:0.07098;word-spacing:0;fill:#231f20;fill-rule:nonzero;stroke:none;font-family:fnt5, &quot;Arial&quot;, Arial"
         id="path16387" />
      <g
         transform="matrix(12.454502,0,0,-12.454502,-5572.8102,965.81981)"
         style="font-size:10.92000008px;letter-spacing:0.07098;word-spacing:0;fill:#231f20;fill-rule:nonzero;stroke:none;font-family:fnt5, &quot;Arial&quot;, Arial"
         clip-path="url(#clp10)"
         id="g16393">
<path
   d="M 483.35,63.635 C 483.22,63.635 483.12,63.742 483.12,63.872 C 483.12,64.001 483.22,64.109 483.35,64.109 C 483.48,64.109 483.59,64.001 483.59,63.872 C 483.59,63.742 483.48,63.635 483.35,63.635 z M 483.55,61.255 L 483.15,61.255 L 483.15,63.263 L 483.55,63.263 L 483.55,61.255"
   style="fill:#231f20;fill-rule:nonzero;stroke:none"
   id="path16395" />

<path
   d="M 485.72,62.955 L 485.31,62.955 C 485.47,62.798 485.52,62.686 485.52,62.516 C 485.52,62.351 485.43,62.158 485.33,62.064 C 485.07,61.778 484.52,61.921 484.52,61.684 C 484.52,61.572 484.73,61.505 485.13,61.425 C 485.56,61.34 485.71,61.121 485.71,60.866 C 485.71,60.468 485.36,60.226 484.77,60.226 C 484.22,60.226 483.84,60.481 483.84,60.834 C 483.84,61.13 484,61.304 484.35,61.389 C 484.21,61.474 484.14,61.555 484.14,61.644 C 484.14,61.774 484.27,61.886 484.46,61.93 L 484.46,61.939 C 484.31,62.002 484.2,62.087 484.13,62.194 C 484.06,62.297 484.02,62.422 484.02,62.57 C 484.02,62.999 484.35,63.263 484.9,63.263 L 485.72,63.263 L 485.72,62.955 z M 484.67,61.156 C 484.4,61.156 484.22,61.031 484.22,60.852 C 484.22,60.651 484.41,60.544 484.77,60.544 C 485.12,60.544 485.33,60.651 485.33,60.834 C 485.33,61.089 484.92,61.156 484.67,61.156 z M 484.77,62.919 C 484.56,62.919 484.38,62.753 484.38,62.556 C 484.38,62.337 484.54,62.19 484.78,62.19 C 485,62.19 485.16,62.346 485.16,62.565 C 485.16,62.758 484.98,62.919 484.77,62.919"
   style="fill:#231f20;fill-rule:nonzero;stroke:none"
   id="path16397" />

</g>
      <path
         d="M 501.3749,200.46582 C 498.38582,202.47099 495.64582,203.41752 491.41131,203.41752 C 483.56495,203.41752 479.20588,197.01591 479.20588,190.10366 C 479.20588,182.53133 484.06313,177.40008 490.91312,177.40008 C 497.51401,177.40008 501.87308,181.92105 501.87308,191.16229 L 484.18768,191.16229 C 484.93496,196.11919 487.79949,198.68482 492.65674,198.68482 C 495.64582,198.68482 498.51037,197.57636 501.3749,195.68329 L 501.3749,200.46582 z M 496.89127,187.87431 C 496.76674,184.08814 494.52494,181.69689 491.03764,181.69689 C 487.30131,181.69689 484.93496,183.92624 484.31224,187.87431 L 496.89127,187.87431"
         style="font-size:10.92000008px;letter-spacing:0.07098;word-spacing:0;fill:#231f20;fill-rule:nonzero;stroke:none;font-family:fnt5, &quot;Arial&quot;, Arial"
         id="path16399" />
      <path
         d="M 511.96122,181.19871 L 512.08576,181.19871 C 513.95395,178.79497 516.81847,177.40008 519.55845,177.40008 C 524.29119,177.40008 528.15207,180.63824 528.15207,187.48822 L 528.15207,202.91936 L 523.17027,202.91936 L 523.17027,187.43841 C 523.17027,183.75186 521.30209,181.36061 518.31302,181.36061 C 516.0712,181.36061 514.32758,182.36943 511.96122,184.98487 L 511.96122,202.91936 L 507.10395,202.91936 L 507.10395,177.9107 L 511.96122,177.9107 L 511.96122,181.19871"
         style="font-size:10.92000008px;letter-spacing:0.07098;word-spacing:0;fill:#231f20;fill-rule:nonzero;stroke:none;font-family:fnt5, &quot;Arial&quot;, Arial"
         id="path16401" />
      <path
         d="M 540.85566,177.9107 L 548.702,177.9107 L 548.702,182.36943 L 540.85566,182.36943 L 540.85566,195.17265 C 540.85566,198.12437 542.97295,198.97127 544.34294,198.97127 C 546.21109,198.97127 547.95475,198.34854 549.94746,197.12801 L 549.94746,201.74864 C 548.32838,202.69517 545.58837,203.41752 543.96929,203.41752 C 538.61386,203.41752 535.87388,200.07973 535.87388,195.57119 L 535.87388,182.36943 L 531.51477,182.36943 L 531.51477,181.80896 L 540.85566,172.72964 L 540.85566,177.9107"
         style="font-size:10.92000008px;letter-spacing:0.07098;word-spacing:0;fill:#231f20;fill-rule:nonzero;stroke:none;font-family:fnt5, &quot;Arial&quot;, Arial"
         id="path16403" />
      <path
         d="M 581.33281,164.92067 C 589.55276,164.92067 593.41367,169.82775 593.41367,175.84327 C 593.41367,181.80896 589.42823,186.49186 580.58552,186.49186 L 574.85646,186.49186 L 574.85646,202.91936 L 569.50103,202.91936 L 569.50103,164.92067 L 581.33281,164.92067 z M 574.85646,181.5848 L 581.0837,181.5848 C 585.1937,181.5848 587.80914,179.41771 587.80914,175.61908 C 587.80914,172.84174 586.3146,169.82775 581.33281,169.82775 L 574.85646,169.82775 L 574.85646,181.5848"
         style="font-size:10.92000008px;letter-spacing:0.07098;word-spacing:0;fill:#231f20;fill-rule:nonzero;stroke:none;font-family:fnt5, &quot;Arial&quot;, Arial"
         id="path16405" />
      <path
         d="M 602.75454,177.9107 L 602.75454,183.63979 L 602.87909,183.63979 C 605.37,179.24335 607.73634,177.40008 610.1027,177.40008 C 612.09541,177.40008 613.9636,178.34662 616.08085,180.30198 L 613.46542,184.58633 C 611.97089,183.14161 609.97816,182.14524 608.85726,182.14524 C 605.49452,182.14524 602.75454,185.54532 602.75454,189.82967 L 602.75454,202.91936 L 597.77275,202.91936 L 597.77275,177.9107 L 602.75454,177.9107"
         style="font-size:10.92000008px;letter-spacing:0.07098;word-spacing:0;fill:#231f20;fill-rule:nonzero;stroke:none;font-family:fnt5, &quot;Arial&quot;, Arial"
         id="path16407" />
      <path
         d="M 643.35622,190.16595 C 643.35622,198.07454 637.87625,203.41752 629.78082,203.41752 C 622.18357,203.41752 616.57903,197.85038 616.57903,190.16595 C 616.57903,182.97968 622.30812,177.40008 629.78082,177.40008 C 637.7517,177.40008 643.35622,182.75552 643.35622,190.16595 z M 621.68539,190.16595 C 621.68539,195.4591 625.04809,198.97127 629.78082,198.97127 C 635.01172,198.97127 638.24988,195.621 638.24988,190.21576 C 638.24988,185.37096 634.76262,181.85879 629.78082,181.85879 C 625.04809,181.85879 621.68539,185.37096 621.68539,190.16595"
         style="font-size:10.92000008px;letter-spacing:0.07098;word-spacing:0;fill:#231f20;fill-rule:nonzero;stroke:none;font-family:fnt5, &quot;Arial&quot;, Arial"
         id="path16409" />
      <path
         d="M 667.26888,184.42442 C 664.40434,182.53133 662.53615,181.97088 660.4189,181.97088 C 655.81072,181.97088 652.69709,185.37096 652.69709,190.43995 C 652.69709,195.621 656.05981,198.74708 661.16615,198.74708 C 663.28342,198.74708 665.27615,198.18664 667.76704,197.06574 L 667.76704,201.9728 C 666.14796,202.75744 663.03433,203.41752 660.4189,203.41752 C 652.9462,203.41752 647.71529,198.23647 647.71529,190.8883 C 647.71529,182.64342 652.44802,177.40008 660.04527,177.40008 C 662.90979,177.40008 664.90252,178.07262 667.26888,179.13125 L 667.26888,184.42442"
         style="font-size:10.92000008px;letter-spacing:0.07098;word-spacing:0;fill:#231f20;fill-rule:nonzero;stroke:none;font-family:fnt5, &quot;Arial&quot;, Arial"
         id="path16411" />
      <path
         d="M 694.17059,200.46582 C 691.18151,202.47099 688.44153,203.41752 684.20698,203.41752 C 676.36066,203.41752 672.00159,197.01591 672.00159,190.10366 C 672.00159,182.53133 676.85884,177.40008 683.83335,177.40008 C 690.43424,177.40008 694.66877,181.92105 694.66877,191.16229 L 676.98339,191.16229 C 677.8552,196.11919 680.59519,198.68482 685.45245,198.68482 C 688.44153,198.68482 691.30607,197.57636 694.17059,195.68329 L 694.17059,200.46582 z M 689.68697,187.87431 C 689.56241,184.08814 687.44516,181.69689 683.83335,181.69689 C 680.097,181.69689 677.8552,183.92624 677.10791,187.87431 L 689.68697,187.87431"
         style="font-size:10.92000008px;letter-spacing:0.07098;word-spacing:0;fill:#231f20;fill-rule:nonzero;stroke:none;font-family:fnt5, &quot;Arial&quot;, Arial"
         id="path16413" />
      <path
         d="M 714.47141,184.3746 C 711.73145,182.53133 709.11598,181.7467 707.24783,181.7467 C 705.2551,181.7467 704.00966,182.69323 704.00966,184.03834 C 704.00966,185.14677 705.62872,186.49186 710.11235,189.04503 C 714.22234,191.77257 715.71689,193.50374 715.71689,196.06938 C 715.71689,200.46582 712.22963,203.41752 707.49692,203.41752 C 704.38329,203.41752 702.01691,202.80727 698.77876,201.13836 L 698.77876,195.79538 C 702.01691,198.02474 704.88147,199.07091 706.8742,199.07091 C 708.99146,198.97127 710.61053,198.02474 710.61053,196.23128 C 710.61053,192.78139 698.9033,190.93813 698.9033,184.20024 C 698.9033,179.9657 702.14147,177.40008 707.12327,177.40008 C 709.48965,177.40008 711.85598,178.07262 714.47141,179.46751 L 714.47141,184.3746"
         style="font-size:10.92000008px;letter-spacing:0.07098;word-spacing:0;fill:#231f20;fill-rule:nonzero;stroke:none;font-family:fnt5, &quot;Arial&quot;, Arial"
         id="path16415" />
      <path
         d="M 736.01771,184.3746 C 733.15319,182.53133 730.53772,181.7467 728.66957,181.7467 C 726.67684,181.7467 725.4314,182.69323 725.4314,184.03834 C 725.4314,185.14677 727.05047,186.49186 731.53409,189.04503 C 735.64408,191.77257 737.13863,193.50374 737.13863,196.06938 C 737.13863,200.46582 733.65135,203.41752 728.91866,203.41752 C 725.80503,203.41752 723.43867,202.80727 720.20051,201.13836 L 720.20051,195.79538 C 723.43867,198.02474 726.42777,199.07091 728.42048,199.07091 C 730.41321,198.97127 732.03227,198.02474 732.03227,196.23128 C 732.03227,192.78139 720.32504,190.93813 720.32504,184.20024 C 720.32504,179.9657 723.56321,177.40008 728.54501,177.40008 C 730.91139,177.40008 733.40228,178.07262 736.01771,179.46751 L 736.01771,184.3746"
         style="font-size:10.92000008px;letter-spacing:0.07098;word-spacing:0;fill:#231f20;fill-rule:nonzero;stroke:none;font-family:fnt5, &quot;Arial&quot;, Arial"
         id="path16417" />
      <path
         d="M 768.15034,190.16595 C 768.15034,198.07454 762.54579,203.41752 754.57492,203.41752 C 746.85315,203.41752 741.37316,197.85038 741.37316,190.16595 C 741.37316,182.97968 747.10222,177.40008 754.57492,177.40008 C 762.42128,177.40008 768.15034,182.75552 768.15034,190.16595 z M 746.47952,190.16595 C 746.47952,195.4591 749.71767,198.97127 754.4504,198.97127 C 759.80583,198.97127 763.04398,195.621 763.04398,190.21576 C 763.04398,185.37096 759.43218,181.85879 754.4504,181.85879 C 749.84222,181.85879 746.47952,185.37096 746.47952,190.16595"
         style="font-size:10.92000008px;letter-spacing:0.07098;word-spacing:0;fill:#231f20;fill-rule:nonzero;stroke:none;font-family:fnt5, &quot;Arial&quot;, Arial"
         id="path16419" />
      <path
         d="M 778.86122,177.9107 L 778.86122,183.63979 L 778.98577,183.63979 C 781.47666,179.24335 783.96756,177.40008 786.20936,177.40008 C 788.32664,177.40008 790.1948,178.34662 792.18753,180.30198 L 789.57208,184.58633 C 788.07753,183.14161 786.20936,182.14524 784.96392,182.14524 C 781.6012,182.14524 778.86122,185.54532 778.86122,189.82967 L 778.86122,202.91936 L 774.00397,202.91936 L 774.00397,177.9107 L 778.86122,177.9107"
         style="font-size:10.92000008px;letter-spacing:0.07098;word-spacing:0;fill:#231f20;fill-rule:nonzero;stroke:none;font-family:fnt5, &quot;Arial&quot;, Arial"
         id="path16421" />
      <path
         d="M 810.24655,184.3746 C 807.50655,182.53133 804.89112,181.7467 803.02296,181.7467 C 801.03022,181.7467 799.66022,182.69323 799.66022,184.03834 C 799.66022,185.14677 801.40386,186.49186 805.76293,189.04503 C 809.87292,191.77257 811.36747,193.50374 811.36747,196.06938 C 811.36747,200.46582 807.88021,203.41752 803.14748,203.41752 C 800.03385,203.41752 797.66751,202.80727 794.42935,201.13836 L 794.42935,195.79538 C 797.66751,198.02474 800.65659,199.07091 802.6493,199.07091 C 804.64203,198.97127 806.38566,198.02474 806.38566,196.23128 C 806.38566,192.78139 794.67842,190.93813 794.67842,184.20024 C 794.67842,179.9657 797.79205,177.40008 802.89841,177.40008 C 805.26476,177.40008 807.6311,178.07262 810.24655,179.46751 L 810.24655,184.3746"
         style="font-size:10.92000008px;letter-spacing:0.07098;word-spacing:0;fill:#231f20;fill-rule:nonzero;stroke:none;font-family:fnt5, &quot;Arial&quot;, Arial"
         id="path16423" />
      <path
         d="M 837.39737,179.6917 C 839.51465,178.13489 841.75646,177.40008 844.24735,177.40008 C 850.47461,177.40008 855.08277,182.69323 855.08277,189.87948 C 855.08277,198.34854 850.10096,203.41752 841.75646,203.41752 C 838.39373,203.41752 834.90648,202.69517 832.41558,201.52445 L 832.41558,164.92067 L 837.39737,164.92067 L 837.39737,179.6917 z M 837.39737,197.96245 C 838.76736,198.41083 840.88463,198.74708 842.37917,198.74708 C 846.8628,198.74708 849.97643,195.34701 849.97643,190.6143 C 849.97643,185.32113 847.23642,181.85879 843.00191,181.85879 C 841.00916,181.85879 839.51465,182.53133 837.39737,184.42442 L 837.39737,197.96245"
         style="font-size:10.92000008px;letter-spacing:0.07098;word-spacing:0;fill:#231f20;fill-rule:nonzero;stroke:none;font-family:fnt5, &quot;Arial&quot;, Arial"
         id="path16425" />
      <path
         d="M 863.17818,215.73504 L 857.57366,215.73504 L 866.16727,197.57636 L 856.45278,177.9107 L 862.05728,177.9107 L 868.78272,191.99676 L 875.25905,177.9107 L 880.86359,177.9107 L 863.17818,215.73504"
         style="font-size:10.92000008px;letter-spacing:0.07098;word-spacing:0;fill:#231f20;fill-rule:nonzero;stroke:none;font-family:fnt5, &quot;Arial&quot;, Arial"
         id="path16427" />
      <path
         d="M 933.42155,202.91936 L 927.94161,202.91936 L 922.83525,191.72276 L 906.64441,191.72276 L 901.91169,202.91936 L 896.30717,202.91936 L 912.62256,164.70893 L 916.48348,164.70893 L 933.42155,202.91936 z M 908.76167,186.81568 L 920.59343,186.81568 L 914.49073,173.0659 L 908.76167,186.81568"
         style="font-size:10.92000008px;letter-spacing:0.07098;word-spacing:0;fill:#231f20;fill-rule:nonzero;stroke:none;font-family:fnt5, &quot;Arial&quot;, Arial"
         id="path16429" />
      <path
         d="M 947.37065,164.92067 C 954.96785,164.92067 959.82515,168.99328 959.82515,175.56928 C 959.82515,179.9657 957.58335,183.2537 953.47335,184.87278 C 956.96065,187.15196 959.07785,190.66411 961.94245,195.39684 C 963.56145,198.02474 964.55785,199.2951 967.17325,202.91936 L 960.57245,202.91936 L 955.59055,195.12284 C 950.60875,187.32632 948.24245,186.42959 945.50245,186.42959 L 943.26065,186.42959 L 943.26065,202.91936 L 937.78065,202.91936 L 937.78065,164.92067 L 947.37065,164.92067 z M 943.26065,181.53497 L 946.74795,181.53497 C 952.60155,181.53497 954.22065,178.52098 954.22065,175.34509 C 954.09605,171.78308 951.97885,169.60356 946.74795,169.60356 L 943.26065,169.60356 L 943.26065,181.53497"
         style="font-size:10.92000008px;letter-spacing:0.07098;word-spacing:0;fill:#231f20;fill-rule:nonzero;stroke:none;font-family:fnt5, &quot;Arial&quot;, Arial"
         id="path16431" />
      <path
         d="M 1006.654,202.91936 L 1001.174,202.91936 L 1001.174,173.3399 L 1001.0495,173.3399 L 989.34235,188.04867 L 988.47045,188.04867 L 976.76325,173.3399 L 976.63875,173.3399 L 976.63875,202.91936 L 971.15875,202.91936 L 971.15875,164.92067 L 976.26505,164.92067 L 988.84415,180.52616 L 1001.5477,164.92067 L 1006.654,164.92067 L 1006.654,202.91936"
         style="font-size:10.92000008px;letter-spacing:0.07098;word-spacing:0;fill:#231f20;fill-rule:nonzero;stroke:none;font-family:fnt5, &quot;Arial&quot;, Arial"
         id="path16433" />
      <path
         d="M 1016.8667,178.79497 C 1013.3794,178.79497 1010.6394,175.99271 1010.6394,172.53037 C 1010.6394,169.06801 1013.3794,166.2782 1016.8667,166.2782 C 1020.354,166.2782 1023.2185,169.06801 1023.2185,172.53037 C 1023.2185,175.99271 1020.354,178.79497 1016.8667,178.79497 z M 1016.8667,167.31192 C 1014.0022,167.31192 1011.6358,169.64091 1011.6358,172.53037 C 1011.6358,175.41981 1014.0022,177.76126 1016.8667,177.76126 C 1019.7312,177.76126 1022.0976,175.41981 1022.0976,172.53037 C 1022.0976,169.64091 1019.7312,167.31192 1016.8667,167.31192 z M 1014.1267,169.26728 L 1017.1158,169.26728 C 1018.8594,169.26728 1019.3576,170.30102 1019.3576,171.03582 C 1019.3576,172.11937 1018.6103,172.904 1017.4894,172.96627 L 1017.4894,173.00364 C 1017.9876,173.20291 1018.4858,173.78827 1018.984,174.685 L 1019.8558,175.99271 L 1018.4858,175.99271 L 1017.8631,174.94654 C 1017.1158,173.4271 1016.7421,173.14063 1015.8703,173.14063 L 1015.2476,173.14063 L 1015.2476,175.99271 L 1014.1267,175.99271 L 1014.1267,169.26728 z M 1016.8667,172.20655 C 1017.614,172.20655 1018.2367,171.88272 1018.2367,171.18529 C 1018.2367,170.57501 1017.7385,170.18892 1016.9913,170.18892 L 1015.2476,170.18892 L 1015.2476,172.20655 L 1016.8667,172.20655"
         style="font-size:10.92000008px;letter-spacing:0.07098;word-spacing:0;fill:#231f20;fill-rule:nonzero;stroke:none;font-family:fnt5, &quot;Arial&quot;, Arial"
         id="path16435" />
      <path
         d="M 1029.8194,-1.6458451 L 1029.8194,-0.4875751 L 1027.0794,-0.4875751 L 1027.0794,7.4583949 L 1025.7094,7.4583949 L 1025.7094,-0.4875751 L 1022.8449,-0.4875751 L 1022.8449,-1.6458451 L 1029.8194,-1.6458451 z M 1038.6621,7.4583949 L 1038.2884,1.9659449 C 1038.1639,1.2560549 1038.2884,0.3842349 1038.2884,-0.5000351 L 1038.1639,-0.5000351 C 1037.9148,0.3468649 1037.6657,1.3058649 1037.4166,2.1029549 L 1035.5484,7.3338349 L 1034.4276,7.3338349 L 1032.5594,1.9659449 C 1032.3103,1.2311449 1032.1857,0.3468649 1031.9367,-0.5000351 L 1031.8121,-0.5000351 C 1031.8121,0.3593249 1031.8121,1.1439649 1031.8121,1.9659449 L 1031.4385,7.4583949 L 1030.193,7.4583949 L 1030.8158,-1.6458451 L 1032.6839,-1.6458451 L 1034.4276,3.2861349 C 1034.6766,3.9711349 1034.8012,4.7308549 1035.0503,5.5777549 L 1035.1748,5.5777549 C 1035.2994,4.7308549 1035.5484,3.9337649 1035.7976,3.2736749 L 1037.5412,-1.6458451 L 1039.2848,-1.6458451 L 1040.0321,7.4583949 L 1038.6621,7.4583949"
         style="font-size:10.92000008px;letter-spacing:0.07098;word-spacing:0;fill:#231f20;fill-rule:nonzero;stroke:none;font-family:fnt5, &quot;Arial&quot;, Arial"
         id="path16437" />
    </g>
  </g>
</svg>
